<svg xmlns="http://www.w3.org/2000/svg" viewBox="0 0 500 500"><g id="freepik--Floor--inject-4"><ellipse id="freepik--floor--inject-4" cx="250" cy="347.42" rx="242" ry="139.78" style="fill:#f5f5f5"></ellipse></g><g id="freepik--Shadows--inject-4"><path id="freepik--Shadow--inject-4" d="M91.42,380.48,21.78,340.27c-2.43-1.4-2.43-3.67,0-5.08L147.65,262.5a9.74,9.74,0,0,1,8.8,0l69.65,40.21c2.43,1.4,2.43,3.68,0,5.08L100.22,380.48A9.68,9.68,0,0,1,91.42,380.48Z" style="fill:#e0e0e0"></path><ellipse id="freepik--shadow--inject-4" cx="403.36" cy="382.66" rx="60.77" ry="35.09" style="fill:#e0e0e0"></ellipse><ellipse id="freepik--shadow--inject-4" cx="167.4" cy="422.49" rx="60.77" ry="35.09" style="fill:#e0e0e0"></ellipse></g><g id="freepik--Gears--inject-4"><g id="freepik--gears--inject-4"><path d="M136.14,30.67h0a.88.88,0,0,0-1,.15l-1.92,1.45-.37,1.24a2.3,2.3,0,0,0,.7,2.19,11.25,11.25,0,0,1,1,1.06,1.35,1.35,0,0,0,1.9.29L141,33.67a.89.89,0,0,1,.95-.16Zm-6.07,17.68c-.91-3.76-3.45-5.49-6.57-5a9.85,9.85,0,0,1,.8,2.18c1.43,6-1.82,14.74-7.25,19.62a11.62,11.62,0,0,1-5.83,3.09c2.15,3.91,6.93,4,11.61-.24C128.27,63.08,131.51,54.29,130.07,48.35Zm-1.6-25.73h0a1.41,1.41,0,0,0-.38-.12L124.51,22A1.92,1.92,0,0,0,122.57,23l-2.9,6.55a3.06,3.06,0,0,1-.68.89h0a3.57,3.57,0,0,1-.54.42l1.26,3.38a1.21,1.21,0,0,0,1.72.65,15.57,15.57,0,0,1,2.13-.86,3.7,3.7,0,0,0,1.21-.74,2.62,2.62,0,0,0,.69-.9l2.9-6.55a1.93,1.93,0,0,1,1.94-1.06l3.59.56a1.37,1.37,0,0,1,.36.11Zm-5.89,61.91a1,1,0,0,1-.37-.51l-1.45-3.88a1.19,1.19,0,0,0-1.72-.65,16.29,16.29,0,0,1-2.13.85,2.59,2.59,0,0,0-.66.34l.19.49a1,1,0,0,0,.49.59h0ZM112,26.93a.85.85,0,0,0-.39-.07,1,1,0,0,0-.63.29l-5,4.51a1.8,1.8,0,0,0-.19.2.7.7,0,0,0-.13.17,3.41,3.41,0,0,0-.41.86c0,.07,0,.15,0,.21h0a2.37,2.37,0,0,0-.08.86l.64,5a4,4,0,0,1-.66,2.49c-.8,1.09-1.54,2.24-2.24,3.41a2.61,2.61,0,0,1-1.1,1,2.14,2.14,0,0,1-.46.17.54.54,0,0,1-.22,0,1,1,0,0,1-.3,0l-3.41.06h-.08a1.26,1.26,0,0,0-.28,0l-.24.07,0,0a1.59,1.59,0,0,0-.27.12,2.69,2.69,0,0,0-.47.34,2.07,2.07,0,0,0-.5.73l-2.72,7.38a1.36,1.36,0,0,0,.65,1.69l3.92,1.92a1.75,1.75,0,0,1,.15,1,31.86,31.86,0,0,0-.37,3.45,4.23,4.23,0,0,1-1,2.4l-.06.05L91.7,69.94a1.09,1.09,0,0,0-.21.26l0,0a1.23,1.23,0,0,0-.17.32,2.78,2.78,0,0,0-.24,1.73l1.23,5a1,1,0,0,0,.45.67l5.76,2.83a1,1,0,0,1-.43-.65l-1.22-5.06a2.3,2.3,0,0,1,0-1,2.72,2.72,0,0,1,.64-1.38l4.35-4.57,0,0a4.37,4.37,0,0,0,1-2.4,29.94,29.94,0,0,1,.36-3.45,1.72,1.72,0,0,0-1.07-1.84l-2.82-1a1.37,1.37,0,0,1-.84-1.77l2.72-7.37a2.12,2.12,0,0,1,.5-.73,2.2,2.2,0,0,1,1.38-.61l3.41,0a2.31,2.31,0,0,0,1-.26,2.66,2.66,0,0,0,1.11-1c.69-1.17,1.45-2.32,2.24-3.41a3.92,3.92,0,0,0,.66-2.49l-.65-5a2.44,2.44,0,0,1,.07-.88,2.93,2.93,0,0,1,.79-1.44l5-4.51a.91.91,0,0,1,1-.21Zm-4.39,53.94a2.36,2.36,0,0,0-.71-2.2,10,10,0,0,1-1-1.06,1.37,1.37,0,0,0-1.91-.3l-2.55,1.94-1.6,5.39a1.17,1.17,0,0,0,.57,1.4h0l5.79,2.85a1.17,1.17,0,0,1-.57-1.41Z" style="fill:#5928E5"></path><path d="M136.14,30.67h0a.88.88,0,0,0-1,.15l-1.92,1.45-.37,1.24a2.3,2.3,0,0,0,.7,2.19,11.25,11.25,0,0,1,1,1.06,1.35,1.35,0,0,0,1.9.29L141,33.67a.89.89,0,0,1,.95-.16Zm-6.07,17.68c-.91-3.76-3.45-5.49-6.57-5a9.85,9.85,0,0,1,.8,2.18c1.43,6-1.82,14.74-7.25,19.62a11.62,11.62,0,0,1-5.83,3.09c2.15,3.91,6.93,4,11.61-.24C128.27,63.08,131.51,54.29,130.07,48.35Zm-1.6-25.73h0a1.41,1.41,0,0,0-.38-.12L124.51,22A1.92,1.92,0,0,0,122.57,23l-2.9,6.55a3.06,3.06,0,0,1-.68.89h0a3.57,3.57,0,0,1-.54.42l1.26,3.38a1.21,1.21,0,0,0,1.72.65,15.57,15.57,0,0,1,2.13-.86,3.7,3.7,0,0,0,1.21-.74,2.62,2.62,0,0,0,.69-.9l2.9-6.55a1.93,1.93,0,0,1,1.94-1.06l3.59.56a1.37,1.37,0,0,1,.36.11Zm-5.89,61.91a1,1,0,0,1-.37-.51l-1.45-3.88a1.19,1.19,0,0,0-1.72-.65,16.29,16.29,0,0,1-2.13.85,2.59,2.59,0,0,0-.66.34l.19.49a1,1,0,0,0,.49.59h0ZM112,26.93a.85.85,0,0,0-.39-.07,1,1,0,0,0-.63.29l-5,4.51a1.8,1.8,0,0,0-.19.2.7.7,0,0,0-.13.17,3.41,3.41,0,0,0-.41.86c0,.07,0,.15,0,.21h0a2.37,2.37,0,0,0-.08.86l.64,5a4,4,0,0,1-.66,2.49c-.8,1.09-1.54,2.24-2.24,3.41a2.61,2.61,0,0,1-1.1,1,2.14,2.14,0,0,1-.46.17.54.54,0,0,1-.22,0,1,1,0,0,1-.3,0l-3.41.06h-.08a1.26,1.26,0,0,0-.28,0l-.24.07,0,0a1.59,1.59,0,0,0-.27.12,2.69,2.69,0,0,0-.47.34,2.07,2.07,0,0,0-.5.73l-2.72,7.38a1.36,1.36,0,0,0,.65,1.69l3.92,1.92a1.75,1.75,0,0,1,.15,1,31.86,31.86,0,0,0-.37,3.45,4.23,4.23,0,0,1-1,2.4l-.06.05L91.7,69.94a1.09,1.09,0,0,0-.21.26l0,0a1.23,1.23,0,0,0-.17.32,2.78,2.78,0,0,0-.24,1.73l1.23,5a1,1,0,0,0,.45.67l5.76,2.83a1,1,0,0,1-.43-.65l-1.22-5.06a2.3,2.3,0,0,1,0-1,2.72,2.72,0,0,1,.64-1.38l4.35-4.57,0,0a4.37,4.37,0,0,0,1-2.4,29.94,29.94,0,0,1,.36-3.45,1.72,1.72,0,0,0-1.07-1.84l-2.82-1a1.37,1.37,0,0,1-.84-1.77l2.72-7.37a2.12,2.12,0,0,1,.5-.73,2.2,2.2,0,0,1,1.38-.61l3.41,0a2.31,2.31,0,0,0,1-.26,2.66,2.66,0,0,0,1.11-1c.69-1.17,1.45-2.32,2.24-3.41a3.92,3.92,0,0,0,.66-2.49l-.65-5a2.44,2.44,0,0,1,.07-.88,2.93,2.93,0,0,1,.79-1.44l5-4.51a.91.91,0,0,1,1-.21Zm-4.39,53.94a2.36,2.36,0,0,0-.71-2.2,10,10,0,0,1-1-1.06,1.37,1.37,0,0,0-1.91-.3l-2.55,1.94-1.6,5.39a1.17,1.17,0,0,0,.57,1.4h0l5.79,2.85a1.17,1.17,0,0,1-.57-1.41Z" style="fill:#fff;opacity:0.7000000000000001"></path><path d="M136.14,30.67h0a.88.88,0,0,0-1,.15l-1.92,1.45-.37,1.24a2.3,2.3,0,0,0,.7,2.19,11.25,11.25,0,0,1,1,1.06,1.35,1.35,0,0,0,1.9.29L141,33.67a.89.89,0,0,1,.95-.16Zm-6.07,17.68c-.91-3.76-3.45-5.49-6.57-5a9.85,9.85,0,0,1,.8,2.18c1.43,6-1.82,14.74-7.25,19.62a11.62,11.62,0,0,1-5.83,3.09c2.15,3.91,6.93,4,11.61-.24C128.27,63.08,131.51,54.29,130.07,48.35Zm-1.6-25.73h0a1.41,1.41,0,0,0-.38-.12L124.51,22A1.92,1.92,0,0,0,122.57,23l-2.9,6.55a3.06,3.06,0,0,1-.68.89h0a3.57,3.57,0,0,1-.54.42l1.26,3.38a1.21,1.21,0,0,0,1.72.65,15.57,15.57,0,0,1,2.13-.86,3.7,3.7,0,0,0,1.21-.74,2.62,2.62,0,0,0,.69-.9l2.9-6.55a1.93,1.93,0,0,1,1.94-1.06l3.59.56a1.37,1.37,0,0,1,.36.11Zm-5.89,61.91a1,1,0,0,1-.37-.51l-1.45-3.88a1.19,1.19,0,0,0-1.72-.65,16.29,16.29,0,0,1-2.13.85,2.59,2.59,0,0,0-.66.34l.19.49a1,1,0,0,0,.49.59h0ZM112,26.93a.85.85,0,0,0-.39-.07,1,1,0,0,0-.63.29l-5,4.51a1.8,1.8,0,0,0-.19.2.7.7,0,0,0-.13.17,3.41,3.41,0,0,0-.41.86c0,.07,0,.15,0,.21h0a2.37,2.37,0,0,0-.08.86l.64,5a4,4,0,0,1-.66,2.49c-.8,1.09-1.54,2.24-2.24,3.41a2.61,2.61,0,0,1-1.1,1,2.14,2.14,0,0,1-.46.17.54.54,0,0,1-.22,0,1,1,0,0,1-.3,0l-3.41.06h-.08a1.26,1.26,0,0,0-.28,0l-.24.07,0,0a1.59,1.59,0,0,0-.27.12,2.69,2.69,0,0,0-.47.34,2.07,2.07,0,0,0-.5.73l-2.72,7.38a1.36,1.36,0,0,0,.65,1.69l3.92,1.92a1.75,1.75,0,0,1,.15,1,31.86,31.86,0,0,0-.37,3.45,4.23,4.23,0,0,1-1,2.4l-.06.05L91.7,69.94a1.09,1.09,0,0,0-.21.26l0,0a1.23,1.23,0,0,0-.17.32,2.78,2.78,0,0,0-.24,1.73l1.23,5a1,1,0,0,0,.45.67l5.76,2.83a1,1,0,0,1-.43-.65l-1.22-5.06a2.3,2.3,0,0,1,0-1,2.72,2.72,0,0,1,.64-1.38l4.35-4.57,0,0a4.37,4.37,0,0,0,1-2.4,29.94,29.94,0,0,1,.36-3.45,1.72,1.72,0,0,0-1.07-1.84l-2.82-1a1.37,1.37,0,0,1-.84-1.77l2.72-7.37a2.12,2.12,0,0,1,.5-.73,2.2,2.2,0,0,1,1.38-.61l3.41,0a2.31,2.31,0,0,0,1-.26,2.66,2.66,0,0,0,1.11-1c.69-1.17,1.45-2.32,2.24-3.41a3.92,3.92,0,0,0,.66-2.49l-.65-5a2.44,2.44,0,0,1,.07-.88,2.93,2.93,0,0,1,.79-1.44l5-4.51a.91.91,0,0,1,1-.21Zm-4.39,53.94a2.36,2.36,0,0,0-.71-2.2,10,10,0,0,1-1-1.06,1.37,1.37,0,0,0-1.91-.3l-2.55,1.94-1.6,5.39a1.17,1.17,0,0,0,.57,1.4h0l5.79,2.85a1.17,1.17,0,0,1-.57-1.41Z" style="opacity:0.05"></path><path d="M101.83,68.21l-4.35,4.57a2.72,2.72,0,0,0-.64,1.38l-5.77-2.84a3.63,3.63,0,0,1,.23-.75,1.23,1.23,0,0,1,.17-.32l0,0a1.09,1.09,0,0,1,.21-.26l4.35-4.57Z" style="fill:#5928E5"></path><path d="M107.49,48.7a2.31,2.31,0,0,1-1,.26l-3.41,0a2.2,2.2,0,0,0-1.38.61L96,46.77a2.69,2.69,0,0,1,.47-.34,1.59,1.59,0,0,1,.27-.12l0,0,.24-.07a1.26,1.26,0,0,1,.28,0h.08l3.41-.06a1,1,0,0,0,.3,0,.79.79,0,0,0,.22,0,2.72,2.72,0,0,0,.44-.18h0Z" style="fill:#5928E5"></path><path d="M141.91,33.5a.92.92,0,0,0-.95.17l-4.48,3.4a1.36,1.36,0,0,1-1.9-.3,10.07,10.07,0,0,0-1-1.06,2.32,2.32,0,0,1-.7-2.2l.37-1.22,1.92-1.46a.91.91,0,0,1,1-.16h0Z" style="fill:#5928E5"></path><path d="M134.24,25.46a1.37,1.37,0,0,0-.36-.11l-3.59-.56a1.93,1.93,0,0,0-1.94,1.06l-2.9,6.55a2.62,2.62,0,0,1-.69.9L119,30.45a3.06,3.06,0,0,0,.68-.89l2.9-6.55A1.92,1.92,0,0,1,124.51,22l3.58.56a1.41,1.41,0,0,1,.38.12h0Z" style="fill:#5928E5"></path><path d="M117.76,29.78a.91.91,0,0,0-1,.21l-5,4.51a2.93,2.93,0,0,0-.79,1.44l-5.77-2.84c0-.06,0-.14,0-.21a3.41,3.41,0,0,1,.41-.86.7.7,0,0,1,.13-.17,1.8,1.8,0,0,1,.19-.2l5-4.51a1,1,0,0,1,.63-.29.85.85,0,0,1,.39.07Z" style="fill:#5928E5"></path><path d="M101.83,68.21l-4.35,4.57a2.72,2.72,0,0,0-.64,1.38l-5.77-2.84a3.63,3.63,0,0,1,.23-.75,1.23,1.23,0,0,1,.17-.32l0,0a1.09,1.09,0,0,1,.21-.26l4.35-4.57Z" style="fill:#fff;opacity:0.9"></path><path d="M107.49,48.7a2.31,2.31,0,0,1-1,.26l-3.41,0a2.2,2.2,0,0,0-1.38.61L96,46.77a2.69,2.69,0,0,1,.47-.34,1.59,1.59,0,0,1,.27-.12l0,0,.24-.07a1.26,1.26,0,0,1,.28,0h.08l3.41-.06a1,1,0,0,0,.3,0,.79.79,0,0,0,.22,0,2.72,2.72,0,0,0,.44-.18h0Z" style="fill:#fff;opacity:0.9"></path><path d="M141.91,33.5a.92.92,0,0,0-.95.17l-4.48,3.4a1.36,1.36,0,0,1-1.9-.3,10.07,10.07,0,0,0-1-1.06,2.32,2.32,0,0,1-.7-2.2l.37-1.22,1.92-1.46a.91.91,0,0,1,1-.16h0Z" style="fill:#fff;opacity:0.9"></path><path d="M134.24,25.46a1.37,1.37,0,0,0-.36-.11l-3.59-.56a1.93,1.93,0,0,0-1.94,1.06l-2.9,6.55a2.62,2.62,0,0,1-.69.9L119,30.45a3.06,3.06,0,0,0,.68-.89l2.9-6.55A1.92,1.92,0,0,1,124.51,22l3.58.56a1.41,1.41,0,0,1,.38.12h0Z" style="fill:#fff;opacity:0.9"></path><path d="M117.76,29.78a.91.91,0,0,0-1,.21l-5,4.51a2.93,2.93,0,0,0-.79,1.44l-5.77-2.84c0-.06,0-.14,0-.21a3.41,3.41,0,0,1,.41-.86.7.7,0,0,1,.13-.17,1.8,1.8,0,0,1,.19-.2l5-4.51a1,1,0,0,1,.63-.29.85.85,0,0,1,.39.07Z" style="fill:#fff;opacity:0.9"></path><path d="M143.62,39.24l-1.22-5.05a.85.85,0,0,0-1.44-.52l-4.48,3.4a1.36,1.36,0,0,1-1.9-.3,9.12,9.12,0,0,0-1-1.06,2.32,2.32,0,0,1-.7-2.2l2-6.61a1.18,1.18,0,0,0-1-1.55l-3.58-.56a1.93,1.93,0,0,0-1.94,1.06l-2.9,6.55a3.49,3.49,0,0,1-1.9,1.64,15.57,15.57,0,0,0-2.13.86,1.21,1.21,0,0,1-1.72-.65l-1.45-3.89a.89.89,0,0,0-1.53-.37l-5,4.51a3,3,0,0,0-.86,2.31l.65,5a4,4,0,0,1-.66,2.49c-.8,1.09-1.55,2.24-2.24,3.41A2.74,2.74,0,0,1,106.52,49l-3.41,0a2.19,2.19,0,0,0-1.87,1.33l-2.73,7.38a1.38,1.38,0,0,0,.84,1.77l2.82,1a1.71,1.71,0,0,1,1.07,1.83,29.71,29.71,0,0,0-.36,3.45,4.3,4.3,0,0,1-1,2.4l-4.4,4.62a2.84,2.84,0,0,0-.63,2.36l1.22,5a.84.84,0,0,0,1.43.52L104,77.32a1.36,1.36,0,0,1,1.91.3,9.89,9.89,0,0,0,1,1,2.34,2.34,0,0,1,.69,2.2l-2,6.61a1.18,1.18,0,0,0,1,1.55l3.58.56a1.93,1.93,0,0,0,1.94-1.06L115,82a3.51,3.51,0,0,1,1.91-1.64,16,16,0,0,0,2.12-.86,1.22,1.22,0,0,1,1.72.65L122.22,84a.88.88,0,0,0,1.52.37l5-4.51a3,3,0,0,0,.86-2.31l-.65-5a4,4,0,0,1,.66-2.49c.8-1.09,1.55-2.24,2.24-3.41a2.78,2.78,0,0,1,2.08-1.24l3.41,0A2.22,2.22,0,0,0,139.23,64L142,56.66a1.37,1.37,0,0,0-.83-1.77l-2.83-1a1.7,1.7,0,0,1-1.06-1.83q.27-1.76.36-3.45a4.31,4.31,0,0,1,1-2.4L143,41.6A2.85,2.85,0,0,0,143.62,39.24ZM122.83,68c-5.43,4.88-11,4-12.44-1.93s1.81-14.74,7.24-19.63,11-4,12.44,1.93S128.26,63.08,122.83,68Z" style="fill:#5928E5"></path><path d="M143.62,39.24l-1.22-5.05a.85.85,0,0,0-1.44-.52l-4.48,3.4a1.36,1.36,0,0,1-1.9-.3,9.12,9.12,0,0,0-1-1.06,2.32,2.32,0,0,1-.7-2.2l2-6.61a1.18,1.18,0,0,0-1-1.55l-3.58-.56a1.93,1.93,0,0,0-1.94,1.06l-2.9,6.55a3.49,3.49,0,0,1-1.9,1.64,15.57,15.57,0,0,0-2.13.86,1.21,1.21,0,0,1-1.72-.65l-1.45-3.89a.89.89,0,0,0-1.53-.37l-5,4.51a3,3,0,0,0-.86,2.31l.65,5a4,4,0,0,1-.66,2.49c-.8,1.09-1.55,2.24-2.24,3.41A2.74,2.74,0,0,1,106.52,49l-3.41,0a2.19,2.19,0,0,0-1.87,1.33l-2.73,7.38a1.38,1.38,0,0,0,.84,1.77l2.82,1a1.71,1.71,0,0,1,1.07,1.83,29.71,29.71,0,0,0-.36,3.45,4.3,4.3,0,0,1-1,2.4l-4.4,4.62a2.84,2.84,0,0,0-.63,2.36l1.22,5a.84.84,0,0,0,1.43.52L104,77.32a1.36,1.36,0,0,1,1.91.3,9.89,9.89,0,0,0,1,1,2.34,2.34,0,0,1,.69,2.2l-2,6.61a1.18,1.18,0,0,0,1,1.55l3.58.56a1.93,1.93,0,0,0,1.94-1.06L115,82a3.51,3.51,0,0,1,1.91-1.64,16,16,0,0,0,2.12-.86,1.22,1.22,0,0,1,1.72.65L122.22,84a.88.88,0,0,0,1.52.37l5-4.51a3,3,0,0,0,.86-2.31l-.65-5a4,4,0,0,1,.66-2.49c.8-1.09,1.55-2.24,2.24-3.41a2.78,2.78,0,0,1,2.08-1.24l3.41,0A2.22,2.22,0,0,0,139.23,64L142,56.66a1.37,1.37,0,0,0-.83-1.77l-2.83-1a1.7,1.7,0,0,1-1.06-1.83q.27-1.76.36-3.45a4.31,4.31,0,0,1,1-2.4L143,41.6A2.85,2.85,0,0,0,143.62,39.24ZM122.83,68c-5.43,4.88-11,4-12.44-1.93s1.81-14.74,7.24-19.63,11-4,12.44,1.93S128.26,63.08,122.83,68Z" style="fill:#fff;opacity:0.75"></path><path d="M86.94,86.17h0a1.25,1.25,0,0,0-1.33.21l-2.65,2-.5,1.7a3.19,3.19,0,0,0,1,3,14.61,14.61,0,0,1,1.37,1.45A1.87,1.87,0,0,0,87.4,95l6.17-4.68a1.29,1.29,0,0,1,1.31-.22Zm-8.37,24.35c-1.25-5.17-4.75-7.56-9-6.92a13.08,13.08,0,0,1,1.09,3c2,8.2-2.49,20.3-10,27a15.92,15.92,0,0,1-8,4.25c3,5.38,9.55,5.47,16-.33C76.08,130.82,80.55,118.71,78.57,110.52Zm-2.2-35.43h0a1.74,1.74,0,0,0-.53-.17l-4.93-.77a2.64,2.64,0,0,0-2.67,1.45l-4,9a4,4,0,0,1-.94,1.23h0a3.81,3.81,0,0,1-.75.57l1.75,4.66a1.66,1.66,0,0,0,2.36.9,21.89,21.89,0,0,1,2.93-1.18,5.3,5.3,0,0,0,1.68-1,3.92,3.92,0,0,0,.95-1.25l4-9a2.67,2.67,0,0,1,2.67-1.46l4.94.78a1.94,1.94,0,0,1,.5.14Zm-8.12,85.28a1.47,1.47,0,0,1-.5-.71l-2-5.35a1.64,1.64,0,0,0-2.36-.89,23.13,23.13,0,0,1-2.94,1.18,3.5,3.5,0,0,0-.91.45l.26.69a1.38,1.38,0,0,0,.68.8h0ZM53.64,81a1.11,1.11,0,0,0-.54-.1,1.41,1.41,0,0,0-.87.4l-6.92,6.21a1.84,1.84,0,0,0-.26.29,1.32,1.32,0,0,0-.18.22,5,5,0,0,0-.56,1.19c0,.1-.05.2-.07.29h0a3.33,3.33,0,0,0-.11,1.19l.89,6.9a5.47,5.47,0,0,1-.91,3.43c-1.1,1.51-2.13,3.09-3.08,4.7a3.59,3.59,0,0,1-1.53,1.34,2.64,2.64,0,0,1-.62.24,1.63,1.63,0,0,1-.3.07,1.51,1.51,0,0,1-.42,0l-4.7.08h-.11a2.32,2.32,0,0,0-.38.06,1.91,1.91,0,0,0-.34.1s0,0,0,0a2.1,2.1,0,0,0-.37.18,3,3,0,0,0-.65.46,2.85,2.85,0,0,0-.69,1l-3.75,10.16a1.89,1.89,0,0,0,.9,2.32l5.4,2.65a2.34,2.34,0,0,1,.21,1.35,43.75,43.75,0,0,0-.51,4.76,5.75,5.75,0,0,1-1.36,3.3l-.07.07-6,6.29a1.93,1.93,0,0,0-.28.36l0,.07a1.42,1.42,0,0,0-.23.44,3.74,3.74,0,0,0-.33,2.39l1.69,6.95a1.39,1.39,0,0,0,.62.92l7.93,3.9a1.34,1.34,0,0,1-.59-.9l-1.68-7a3.07,3.07,0,0,1,0-1.35,3.84,3.84,0,0,1,.88-1.91l6-6.28.07-.07a6,6,0,0,0,1.37-3.31,44.23,44.23,0,0,1,.5-4.76,2.34,2.34,0,0,0-1.47-2.52l-3.89-1.36a1.88,1.88,0,0,1-1.15-2.43l3.75-10.16a2.61,2.61,0,0,1,.69-1,3,3,0,0,1,1.89-.83l4.71-.08a3,3,0,0,0,1.33-.36A3.62,3.62,0,0,0,49,109.66c1-1.61,2-3.19,3.09-4.7a5.47,5.47,0,0,0,.91-3.43l-.89-6.89a3,3,0,0,1,.1-1.21,4,4,0,0,1,1.08-2l6.9-6.21a1.25,1.25,0,0,1,1.43-.3Zm-6.06,74.3a3.24,3.24,0,0,0-1-3,13.5,13.5,0,0,1-1.36-1.46,1.87,1.87,0,0,0-2.62-.42l-3.53,2.67-2.2,7.42a1.61,1.61,0,0,0,.78,1.93h0l8,3.93a1.61,1.61,0,0,1-.78-1.94Z" style="fill:#5928E5"></path><path d="M86.94,86.17h0a1.25,1.25,0,0,0-1.33.21l-2.65,2-.5,1.7a3.19,3.19,0,0,0,1,3,14.61,14.61,0,0,1,1.37,1.45A1.87,1.87,0,0,0,87.4,95l6.17-4.68a1.29,1.29,0,0,1,1.31-.22Zm-8.37,24.35c-1.25-5.17-4.75-7.56-9-6.92a13.08,13.08,0,0,1,1.09,3c2,8.2-2.49,20.3-10,27a15.92,15.92,0,0,1-8,4.25c3,5.38,9.55,5.47,16-.33C76.08,130.82,80.55,118.71,78.57,110.52Zm-2.2-35.43h0a1.74,1.74,0,0,0-.53-.17l-4.93-.77a2.64,2.64,0,0,0-2.67,1.45l-4,9a4,4,0,0,1-.94,1.23h0a3.81,3.81,0,0,1-.75.57l1.75,4.66a1.66,1.66,0,0,0,2.36.9,21.89,21.89,0,0,1,2.93-1.18,5.3,5.3,0,0,0,1.68-1,3.92,3.92,0,0,0,.95-1.25l4-9a2.67,2.67,0,0,1,2.67-1.46l4.94.78a1.94,1.94,0,0,1,.5.14Zm-8.12,85.28a1.47,1.47,0,0,1-.5-.71l-2-5.35a1.64,1.64,0,0,0-2.36-.89,23.13,23.13,0,0,1-2.94,1.18,3.5,3.5,0,0,0-.91.45l.26.69a1.38,1.38,0,0,0,.68.8h0ZM53.64,81a1.11,1.11,0,0,0-.54-.1,1.41,1.41,0,0,0-.87.4l-6.92,6.21a1.84,1.84,0,0,0-.26.29,1.32,1.32,0,0,0-.18.22,5,5,0,0,0-.56,1.19c0,.1-.05.2-.07.29h0a3.33,3.33,0,0,0-.11,1.19l.89,6.9a5.47,5.47,0,0,1-.91,3.43c-1.1,1.51-2.13,3.09-3.08,4.7a3.59,3.59,0,0,1-1.53,1.34,2.64,2.64,0,0,1-.62.24,1.63,1.63,0,0,1-.3.07,1.51,1.51,0,0,1-.42,0l-4.7.08h-.11a2.32,2.32,0,0,0-.38.06,1.91,1.91,0,0,0-.34.1s0,0,0,0a2.1,2.1,0,0,0-.37.18,3,3,0,0,0-.65.46,2.85,2.85,0,0,0-.69,1l-3.75,10.16a1.89,1.89,0,0,0,.9,2.32l5.4,2.65a2.34,2.34,0,0,1,.21,1.35,43.75,43.75,0,0,0-.51,4.76,5.75,5.75,0,0,1-1.36,3.3l-.07.07-6,6.29a1.93,1.93,0,0,0-.28.36l0,.07a1.42,1.42,0,0,0-.23.44,3.74,3.74,0,0,0-.33,2.39l1.69,6.95a1.39,1.39,0,0,0,.62.92l7.93,3.9a1.34,1.34,0,0,1-.59-.9l-1.68-7a3.07,3.07,0,0,1,0-1.35,3.84,3.84,0,0,1,.88-1.91l6-6.28.07-.07a6,6,0,0,0,1.37-3.31,44.23,44.23,0,0,1,.5-4.76,2.34,2.34,0,0,0-1.47-2.52l-3.89-1.36a1.88,1.88,0,0,1-1.15-2.43l3.75-10.16a2.61,2.61,0,0,1,.69-1,3,3,0,0,1,1.89-.83l4.71-.08a3,3,0,0,0,1.33-.36A3.62,3.62,0,0,0,49,109.66c1-1.61,2-3.19,3.09-4.7a5.47,5.47,0,0,0,.91-3.43l-.89-6.89a3,3,0,0,1,.1-1.21,4,4,0,0,1,1.08-2l6.9-6.21a1.25,1.25,0,0,1,1.43-.3Zm-6.06,74.3a3.24,3.24,0,0,0-1-3,13.5,13.5,0,0,1-1.36-1.46,1.87,1.87,0,0,0-2.62-.42l-3.53,2.67-2.2,7.42a1.61,1.61,0,0,0,.78,1.93h0l8,3.93a1.61,1.61,0,0,1-.78-1.94Z" style="fill:#fff;opacity:0.7000000000000001"></path><path d="M86.94,86.17h0a1.25,1.25,0,0,0-1.33.21l-2.65,2-.5,1.7a3.19,3.19,0,0,0,1,3,14.61,14.61,0,0,1,1.37,1.45A1.87,1.87,0,0,0,87.4,95l6.17-4.68a1.29,1.29,0,0,1,1.31-.22Zm-8.37,24.35c-1.25-5.17-4.75-7.56-9-6.92a13.08,13.08,0,0,1,1.09,3c2,8.2-2.49,20.3-10,27a15.92,15.92,0,0,1-8,4.25c3,5.38,9.55,5.47,16-.33C76.08,130.82,80.55,118.71,78.57,110.52Zm-2.2-35.43h0a1.74,1.74,0,0,0-.53-.17l-4.93-.77a2.64,2.64,0,0,0-2.67,1.45l-4,9a4,4,0,0,1-.94,1.23h0a3.81,3.81,0,0,1-.75.57l1.75,4.66a1.66,1.66,0,0,0,2.36.9,21.89,21.89,0,0,1,2.93-1.18,5.3,5.3,0,0,0,1.68-1,3.92,3.92,0,0,0,.95-1.25l4-9a2.67,2.67,0,0,1,2.67-1.46l4.94.78a1.94,1.94,0,0,1,.5.14Zm-8.12,85.28a1.47,1.47,0,0,1-.5-.71l-2-5.35a1.64,1.64,0,0,0-2.36-.89,23.13,23.13,0,0,1-2.94,1.18,3.5,3.5,0,0,0-.91.45l.26.69a1.38,1.38,0,0,0,.68.8h0ZM53.64,81a1.11,1.11,0,0,0-.54-.1,1.41,1.41,0,0,0-.87.4l-6.92,6.21a1.84,1.84,0,0,0-.26.29,1.32,1.32,0,0,0-.18.22,5,5,0,0,0-.56,1.19c0,.1-.05.2-.07.29h0a3.33,3.33,0,0,0-.11,1.19l.89,6.9a5.47,5.47,0,0,1-.91,3.43c-1.1,1.51-2.13,3.09-3.08,4.7a3.59,3.59,0,0,1-1.53,1.34,2.64,2.64,0,0,1-.62.24,1.63,1.63,0,0,1-.3.07,1.51,1.51,0,0,1-.42,0l-4.7.08h-.11a2.32,2.32,0,0,0-.38.06,1.91,1.91,0,0,0-.34.1s0,0,0,0a2.1,2.1,0,0,0-.37.18,3,3,0,0,0-.65.46,2.85,2.85,0,0,0-.69,1l-3.75,10.16a1.89,1.89,0,0,0,.9,2.32l5.4,2.65a2.34,2.34,0,0,1,.21,1.35,43.75,43.75,0,0,0-.51,4.76,5.75,5.75,0,0,1-1.36,3.3l-.07.07-6,6.29a1.93,1.93,0,0,0-.28.36l0,.07a1.42,1.42,0,0,0-.23.44,3.74,3.74,0,0,0-.33,2.39l1.69,6.95a1.39,1.39,0,0,0,.62.92l7.93,3.9a1.34,1.34,0,0,1-.59-.9l-1.68-7a3.07,3.07,0,0,1,0-1.35,3.84,3.84,0,0,1,.88-1.91l6-6.28.07-.07a6,6,0,0,0,1.37-3.31,44.23,44.23,0,0,1,.5-4.76,2.34,2.34,0,0,0-1.47-2.52l-3.89-1.36a1.88,1.88,0,0,1-1.15-2.43l3.75-10.16a2.61,2.61,0,0,1,.69-1,3,3,0,0,1,1.89-.83l4.71-.08a3,3,0,0,0,1.33-.36A3.62,3.62,0,0,0,49,109.66c1-1.61,2-3.19,3.09-4.7a5.47,5.47,0,0,0,.91-3.43l-.89-6.89a3,3,0,0,1,.1-1.21,4,4,0,0,1,1.08-2l6.9-6.21a1.25,1.25,0,0,1,1.43-.3Zm-6.06,74.3a3.24,3.24,0,0,0-1-3,13.5,13.5,0,0,1-1.36-1.46,1.87,1.87,0,0,0-2.62-.42l-3.53,2.67-2.2,7.42a1.61,1.61,0,0,0,.78,1.93h0l8,3.93a1.61,1.61,0,0,1-.78-1.94Z" style="opacity:0.05"></path><path d="M39.67,137.89l-6,6.28a3.84,3.84,0,0,0-.88,1.91l-7.95-3.91a4.64,4.64,0,0,1,.32-1,1.42,1.42,0,0,1,.23-.44l0-.07a1.93,1.93,0,0,1,.28-.36l6-6.29Z" style="fill:#5928E5"></path><path d="M47.47,111a3,3,0,0,1-1.33.36l-4.71.08a3,3,0,0,0-1.89.83l-8-3.92a3,3,0,0,1,.65-.46,2.1,2.1,0,0,1,.37-.18s0,0,0,0a1.91,1.91,0,0,1,.34-.1,2.32,2.32,0,0,1,.38-.06h.11l4.7-.08a1.51,1.51,0,0,0,.42,0l.3-.07c.2-.07.4-.16.6-.25h0Z" style="fill:#5928E5"></path><path d="M94.88,90.07a1.26,1.26,0,0,0-1.31.24L87.4,95a1.88,1.88,0,0,1-2.62-.41,12.76,12.76,0,0,0-1.37-1.46,3.18,3.18,0,0,1-1-3L83,88.4l2.64-2a1.25,1.25,0,0,1,1.34-.21v0Z" style="fill:#5928E5"></path><path d="M84.31,79a1.94,1.94,0,0,0-.5-.14l-4.94-.78a2.67,2.67,0,0,0-2.67,1.46l-4,9a3.92,3.92,0,0,1-.95,1.25l-8-3.93a4,4,0,0,0,.94-1.23l4-9a2.64,2.64,0,0,1,2.67-1.45l4.93.77a1.74,1.74,0,0,1,.53.17h0Z" style="fill:#5928E5"></path><path d="M61.61,84.94a1.25,1.25,0,0,0-1.43.3l-6.9,6.21a4,4,0,0,0-1.08,2l-8-3.91c0-.09,0-.19.07-.29A5,5,0,0,1,44.87,88a1.32,1.32,0,0,1,.18-.22,1.84,1.84,0,0,1,.26-.29l6.92-6.21a1.41,1.41,0,0,1,.87-.4,1.11,1.11,0,0,1,.54.1Z" style="fill:#5928E5"></path><path d="M39.67,137.89l-6,6.28a3.84,3.84,0,0,0-.88,1.91l-7.95-3.91a4.64,4.64,0,0,1,.32-1,1.42,1.42,0,0,1,.23-.44l0-.07a1.93,1.93,0,0,1,.28-.36l6-6.29Z" style="fill:#fff;opacity:0.9"></path><path d="M47.47,111a3,3,0,0,1-1.33.36l-4.71.08a3,3,0,0,0-1.89.83l-8-3.92a3,3,0,0,1,.65-.46,2.1,2.1,0,0,1,.37-.18s0,0,0,0a1.91,1.91,0,0,1,.34-.1,2.32,2.32,0,0,1,.38-.06h.11l4.7-.08a1.51,1.51,0,0,0,.42,0l.3-.07c.2-.07.4-.16.6-.25h0Z" style="fill:#fff;opacity:0.9"></path><path d="M94.88,90.07a1.26,1.26,0,0,0-1.31.24L87.4,95a1.88,1.88,0,0,1-2.62-.41,12.76,12.76,0,0,0-1.37-1.46,3.18,3.18,0,0,1-1-3L83,88.4l2.64-2a1.25,1.25,0,0,1,1.34-.21v0Z" style="fill:#fff;opacity:0.9"></path><path d="M84.31,79a1.94,1.94,0,0,0-.5-.14l-4.94-.78a2.67,2.67,0,0,0-2.67,1.46l-4,9a3.92,3.92,0,0,1-.95,1.25l-8-3.93a4,4,0,0,0,.94-1.23l4-9a2.64,2.64,0,0,1,2.67-1.45l4.93.77a1.74,1.74,0,0,1,.53.17h0Z" style="fill:#fff;opacity:0.9"></path><path d="M61.61,84.94a1.25,1.25,0,0,0-1.43.3l-6.9,6.21a4,4,0,0,0-1.08,2l-8-3.91c0-.09,0-.19.07-.29A5,5,0,0,1,44.87,88a1.32,1.32,0,0,1,.18-.22,1.84,1.84,0,0,1,.26-.29l6.92-6.21a1.41,1.41,0,0,1,.87-.4,1.11,1.11,0,0,1,.54.1Z" style="fill:#fff;opacity:0.9"></path><path d="M97.23,98l-1.68-7a1.16,1.16,0,0,0-2-.71L87.4,95a1.87,1.87,0,0,1-2.62-.41,13.57,13.57,0,0,0-1.36-1.46,3.19,3.19,0,0,1-1-3L85.16,81a1.64,1.64,0,0,0-1.35-2.14l-4.93-.76a2.65,2.65,0,0,0-2.68,1.46l-4,9a4.82,4.82,0,0,1-2.62,2.26A22.25,22.25,0,0,0,66.66,92a1.66,1.66,0,0,1-2.37-.9l-2-5.35a1.21,1.21,0,0,0-2.09-.51l-6.91,6.21a4.06,4.06,0,0,0-1.18,3.18l.89,6.9a5.43,5.43,0,0,1-.91,3.43q-1.65,2.27-3.08,4.7a3.79,3.79,0,0,1-2.87,1.7l-4.7.08a3,3,0,0,0-2.58,1.83L35.1,123.43a1.89,1.89,0,0,0,1.15,2.44l3.89,1.36a2.36,2.36,0,0,1,1.47,2.52,41.59,41.59,0,0,0-.5,4.76,5.93,5.93,0,0,1-1.37,3.31l-6.06,6.36a3.91,3.91,0,0,0-.87,3.25l1.68,7a1.16,1.16,0,0,0,2,.71l6.17-4.67a1.87,1.87,0,0,1,2.63.41,13.45,13.45,0,0,0,1.36,1.45,3.22,3.22,0,0,1,1,3l-2.7,9.11a1.62,1.62,0,0,0,1.35,2.13l4.93.77a2.64,2.64,0,0,0,2.67-1.46l4-9a4.71,4.71,0,0,1,2.62-2.26,24.36,24.36,0,0,0,2.93-1.19,1.67,1.67,0,0,1,2.37.9l2,5.34a1.22,1.22,0,0,0,2.1.52L76.76,154a4.09,4.09,0,0,0,1.17-3.18L77,143.87a5.57,5.57,0,0,1,.91-3.43c1.1-1.5,2.13-3.08,3.09-4.7a3.79,3.79,0,0,1,2.87-1.7L88.6,134a3,3,0,0,0,2.58-1.84L94.93,122a1.87,1.87,0,0,0-1.14-2.43l-3.89-1.36a2.35,2.35,0,0,1-1.47-2.53,46.63,46.63,0,0,0,.5-4.76,5.91,5.91,0,0,1,1.36-3.3l6.06-6.36A3.89,3.89,0,0,0,97.23,98ZM68.6,137.55c-7.49,6.73-15.16,5.54-17.14-2.66s2.49-20.3,10-27,15.15-5.54,17.13,2.66S76.08,130.82,68.6,137.55Z" style="fill:#5928E5"></path><path d="M97.23,98l-1.68-7a1.16,1.16,0,0,0-2-.71L87.4,95a1.87,1.87,0,0,1-2.62-.41,13.57,13.57,0,0,0-1.36-1.46,3.19,3.19,0,0,1-1-3L85.16,81a1.64,1.64,0,0,0-1.35-2.14l-4.93-.76a2.65,2.65,0,0,0-2.68,1.46l-4,9a4.82,4.82,0,0,1-2.62,2.26A22.25,22.25,0,0,0,66.66,92a1.66,1.66,0,0,1-2.37-.9l-2-5.35a1.21,1.21,0,0,0-2.09-.51l-6.91,6.21a4.06,4.06,0,0,0-1.18,3.18l.89,6.9a5.43,5.43,0,0,1-.91,3.43q-1.65,2.27-3.08,4.7a3.79,3.79,0,0,1-2.87,1.7l-4.7.08a3,3,0,0,0-2.58,1.83L35.1,123.43a1.89,1.89,0,0,0,1.15,2.44l3.89,1.36a2.36,2.36,0,0,1,1.47,2.52,41.59,41.59,0,0,0-.5,4.76,5.93,5.93,0,0,1-1.37,3.31l-6.06,6.36a3.91,3.91,0,0,0-.87,3.25l1.68,7a1.16,1.16,0,0,0,2,.71l6.17-4.67a1.87,1.87,0,0,1,2.63.41,13.45,13.45,0,0,0,1.36,1.45,3.22,3.22,0,0,1,1,3l-2.7,9.11a1.62,1.62,0,0,0,1.35,2.13l4.93.77a2.64,2.64,0,0,0,2.67-1.46l4-9a4.71,4.71,0,0,1,2.62-2.26,24.36,24.36,0,0,0,2.93-1.19,1.67,1.67,0,0,1,2.37.9l2,5.34a1.22,1.22,0,0,0,2.1.52L76.76,154a4.09,4.09,0,0,0,1.17-3.18L77,143.87a5.57,5.57,0,0,1,.91-3.43c1.1-1.5,2.13-3.08,3.09-4.7a3.79,3.79,0,0,1,2.87-1.7L88.6,134a3,3,0,0,0,2.58-1.84L94.93,122a1.87,1.87,0,0,0-1.14-2.43l-3.89-1.36a2.35,2.35,0,0,1-1.47-2.53,46.63,46.63,0,0,0,.5-4.76,5.91,5.91,0,0,1,1.36-3.3l6.06-6.36A3.89,3.89,0,0,0,97.23,98ZM68.6,137.55c-7.49,6.73-15.16,5.54-17.14-2.66s2.49-20.3,10-27,15.15-5.54,17.13,2.66S76.08,130.82,68.6,137.55Z" style="fill:#fff;opacity:0.75"></path></g></g><g id="freepik--Plants--inject-4"><g id="freepik--plants--inject-4"><path d="M85.27,330.9c-1-14.9-2.65-20-11.92-31.32a42.81,42.81,0,0,0-19.21-13.05c-6.19-2-11.59-1.75-15.52,1.33a8.16,8.16,0,0,0-2,9.84c1.57,3.34,9.45,8.11,16.5,11.78C63.89,315.1,78,323,84.05,341.8l1.31,10Z" style="fill:#5928E5"></path><path d="M85.27,330.9c-1-14.9-2.65-20-11.92-31.32a42.81,42.81,0,0,0-19.21-13.05c-6.19-2-11.59-1.75-15.52,1.33a8.16,8.16,0,0,0-2,9.84c1.57,3.34,9.45,8.11,16.5,11.78C63.89,315.1,78,323,84.05,341.8l1.31,10Z" style="opacity:0.2"></path><path d="M84.71,339.13a.49.49,0,0,1-.48-.45c-2.31-26.52-24.42-43.25-39.5-45.13a.5.5,0,0,1-.43-.56.49.49,0,0,1,.56-.44c15.41,1.93,38,19,40.37,46a.5.5,0,0,1-.46.54Z" style="fill:#fff"></path><path d="M84.42,367.81l-.85.72c-3.86,3.13-9.67,4-14.52,4.1-3.2.06-7.52.13-10.23-1.8a4.19,4.19,0,0,1-1.88-4.25c.46-1.72,2.36-3,2.23-4.74-3.59-.55-7.45,1-10.82-.36-2.53-1-4.14-3.51-5.58-5.84-.86-1.37-1.74-3-1.28-4.51.55-1.83,2.65-2.62,4.47-3.21a3.72,3.72,0,0,0,1.35-.67,1.28,1.28,0,0,0,.41-1.36c-.23-.58-.94-.77-1.55-.86-1.31-.19-2.65-.2-4-.46a5.94,5.94,0,0,1-3.46-1.82,7.72,7.72,0,0,1-1.34-4.46,65.38,65.38,0,0,1-.24-8c0-.65-.32-7-.54-6.93,6.22-2.53,13.27-3.19,19.93-2.94,3.71.14,9.21.93,11.42,4.41a7.08,7.08,0,0,1,1,3.3c0,.41-.25,2.59,0,2.75a.5.5,0,0,0,.61-.13,1.33,1.33,0,0,0,.29-.61c.33-1.14.89-2.06,1.23-3.16s.28-2.24,1-3.12a3.59,3.59,0,0,1,2.9-1.05c3.93.11,7.24,3.3,8.73,6.93s1.52,7.69,1.53,11.62l1.87-3.84c2.19-4.48,4.64,3.84,5,5.39a25.13,25.13,0,0,1-7.72,24.94Z" style="fill:#5928E5"></path><path d="M84.77,368.82a.53.53,0,0,1-.43-.37c-5.42-16.8-31.1-39-40.93-42.34a.53.53,0,0,1-.33-.68.54.54,0,0,1,.68-.33c10,3.41,36.09,26,41.59,43a.53.53,0,0,1-.34.67A.65.65,0,0,1,84.77,368.82Z" style="fill:#fff"></path><path d="M53.64,353.43a.49.49,0,0,1-.44-.26.51.51,0,0,1,.2-.68,30.6,30.6,0,0,1,20.7-1.84,45.74,45.74,0,0,1,1.83-19.07l0-.14a.5.5,0,0,1,1,.26l0,.15a44.42,44.42,0,0,0-1.71,19.42.48.48,0,0,1-.16.45.5.5,0,0,1-.47.1,29.46,29.46,0,0,0-20.68,1.55A.53.53,0,0,1,53.64,353.43Z" style="fill:#fff"></path></g><g id="freepik--plants--inject-4"><path d="M432.93,348s.55-11.58,5.68-20.87,12.62-15.38,19.91-16.44,13.65,5.29,6.12,10.44-21.16,10.78-26.43,28.53Z" style="fill:#5928E5"></path><g style="opacity:0.1"><path d="M432.93,348s.55-11.58,5.68-20.87,12.62-15.38,19.91-16.44,13.65,5.29,6.12,10.44-21.16,10.78-26.43,28.53Z"></path></g><path d="M434.88,344.91l-.08,0a.41.41,0,0,1-.25-.5c6.49-19.55,20.69-28.48,27.29-30.46a.38.38,0,0,1,.49.26.4.4,0,0,1-.26.49c-6.47,1.94-20.39,10.71-26.77,30A.4.4,0,0,1,434.88,344.91Z" style="fill:#fff"></path><path d="M474.35,343.25c-.6,1.64-2.28,2.58-3.86,3.34s-3.28,1.57-4.05,3.13c-1.56,3.15,1.61,7.23-.09,10.32a5.43,5.43,0,0,1-3.57,2.39,33.84,33.84,0,0,1-3.63.57,14.41,14.41,0,0,1-1.74,0,7.91,7.91,0,0,0-5,.87c-2.33,1.51-2.87,4.61-4.18,7.06a11.47,11.47,0,0,1-7.8,5.63c-1.07.22-3.08.55-4.22,0a1.36,1.36,0,0,1-.24-.13l0,0a6.4,6.4,0,0,1-.46-.48l-.05-.07c-.53-1.54.06-3.23,0-4.86a1.37,1.37,0,0,0,0-.29q-.29-2.83-.53-5.65c-.32-3.46-.59-6.94-.79-10.42-.13-2.26-.56-4.71.25-6.9.91-2.4,3.53-2.63,4.37-5,.34-.94.49-1.93.81-2.88a8.1,8.1,0,0,1,6.57-5.26c4.57-.53,8.94,2.91,13.5,2.27a35.37,35.37,0,0,0,3.47-.9c3.67-.94,8-.16,10.33,2.84A4.85,4.85,0,0,1,474.35,343.25Z" style="fill:#5928E5"></path><path d="M434.6,368.64h0a.39.39,0,0,1-.31-.46c4.78-24.21,29.62-29.29,35.51-29.26a.4.4,0,0,1,.39.4.39.39,0,0,1-.39.39c-5.77,0-30.06,4.94-34.74,28.63A.4.4,0,0,1,434.6,368.64Z" style="fill:#fff"></path><path d="M461.66,354.75a.37.37,0,0,1-.21-.1A20.94,20.94,0,0,0,444.07,351a.39.39,0,0,1-.46-.3.4.4,0,0,1,.3-.47A21.66,21.66,0,0,1,462,354.07a.38.38,0,0,1,0,.55A.4.4,0,0,1,461.66,354.75Z" style="fill:#fff"></path></g></g><g id="freepik--Device--inject-4"><g id="freepik--device--inject-4"><g id="freepik--Mobile--inject-4"><path d="M189.51,61.18,88.15,119.72a10.91,10.91,0,0,0-5.47,9.06V364.45c0,3.72,2.29,8.05,5.12,9.68s7.73,1.46,10.94-.4l101-58.31a12.91,12.91,0,0,0,5.83-10.09V70.45c0-3.71-2.3-8-5.12-9.67S192.73,59.32,189.51,61.18Z" style="fill:#5928E5"></path><path d="M97.35,374.39c-3.11,1.21-7.1,1.16-9.54-.26-2.83-1.63-5.12-6-5.12-9.68V128.78a10.49,10.49,0,0,1,1.47-5l9.4,5.33a11.3,11.3,0,0,0-2.71,6.78V369.18C90.84,373.65,93.66,375.76,97.35,374.39Z" style="opacity:0.4"></path><path d="M96,127a11.39,11.39,0,0,0-5.13,8.89V369.18c0,5,3.55,7.07,7.9,4.56l101-58.32a12.91,12.91,0,0,0,5.83-10.09V70.45c0-3.69-2.62-5.21-5.83-3.36Z" style="fill:#5928E5"></path><path d="M96,127a11.39,11.39,0,0,0-5.13,8.89V369.18c0,5,3.55,7.07,7.9,4.56l101-58.32a12.91,12.91,0,0,0,5.83-10.09V70.45c0-3.69-2.62-5.21-5.83-3.36Z" style="opacity:0.2"></path><path d="M101.24,141.38A12.2,12.2,0,0,0,95.71,151V351.69c0,3.53,2.47,5,5.53,3.19l95-54.86a12.27,12.27,0,0,0,5.54-9.59V89.7c0-3.51-2.49-5-5.54-3.19Z" style="opacity:0.2"></path><path d="M194.79,285.82V87.36l-93.55,54A12.2,12.2,0,0,0,95.71,151V349.42l93.55-54A12.29,12.29,0,0,0,194.79,285.82Z" style="fill:#5928E5"></path><path d="M194.79,285.82V87.36l-93.55,54A12.2,12.2,0,0,0,95.71,151V349.42l93.55-54A12.29,12.29,0,0,0,194.79,285.82Z" style="fill:#fff;opacity:0.7000000000000001"></path><path d="M140.83,108.73,157.68,99c1-.58,1.81-.16,1.81.92a3.92,3.92,0,0,1-1.81,3l-16.85,9.72c-1,.58-1.82.17-1.82-.92A3.91,3.91,0,0,1,140.83,108.73Z" style="fill:#455a64"></path><path d="M169.73,92c1-.55,1.71-.11,1.71,1a3.77,3.77,0,0,1-1.71,3c-.94.54-1.7.1-1.7-1A3.77,3.77,0,0,1,169.73,92Z" style="fill:#455a64"></path><path d="M176.56,88.08c.95-.55,1.71-.1,1.71,1a3.75,3.75,0,0,1-1.71,3c-.94.54-1.7.1-1.7-1A3.77,3.77,0,0,1,176.56,88.08Z" style="fill:#455a64"></path><path d="M121.94,119.61c1-.54,1.71-.1,1.71,1a3.74,3.74,0,0,1-1.71,3c-.94.55-1.7.11-1.7-1A3.79,3.79,0,0,1,121.94,119.61Z" style="fill:#455a64"></path><path d="M128.78,115.67c.94-.54,1.7-.1,1.7,1a3.75,3.75,0,0,1-1.7,3c-1,.55-1.71.11-1.71-1A3.77,3.77,0,0,1,128.78,115.67Z" style="fill:#455a64"></path><path d="M205.55,70c-.21-3.34-2.73-4.64-5.79-2.88L96,127a9.73,9.73,0,0,0-2.42,2.11l-9.4-5.33A10.47,10.47,0,0,1,87.64,120L189.51,61.18c3.22-1.86,8.12-2,10.94-.41S205.37,66.37,205.55,70Z" style="opacity:0.30000000000000004"></path></g></g></g><g id="freepik--Features--inject-4"><g id="freepik--features--inject-4"><path d="M241.34,92.21c0-11.51,8.08-25.5,18-31.25,5-2.88,9.51-3.15,12.77-1.26l4.59,2.69a21.47,21.47,0,0,1,3,10.37c0,11.51-8.08,25.5-18,31.26a21.35,21.35,0,0,1-10.5,2.56l-4.61-2.69C243.36,102,241.34,98,241.34,92.21Z" style="fill:#5928E5"></path><path d="M246.54,74.58c-3.21,5.61-5.2,11.93-5.2,17.63s2,9.8,5.28,11.68l4.61,2.69a21.35,21.35,0,0,0,10.5-2.56c4.94-2.86,9.41-7.73,12.67-13.33Z" style="opacity:0.15"></path><path d="M279.77,72.76c0,5.81-2.06,12.24-5.37,17.93L246.54,74.58c3.28-5.72,7.82-10.72,12.84-13.62s9.51-3.15,12.77-1.26l4.59,2.69A21.47,21.47,0,0,1,279.77,72.76Z" style="fill:#fff;opacity:0.4"></path><path d="M241.72,87.76a39.92,39.92,0,0,1,4.82-13.18L274.4,90.69a39.92,39.92,0,0,1-9,10.77Z" style="fill:#5928E5;opacity:0.76"></path><ellipse cx="263.98" cy="84.48" rx="25.52" ry="14.73" transform="translate(58.83 270.86) rotate(-60)" style="fill:#5928E5"></ellipse><path d="M253.87,114.45a17.65,17.65,0,0,1-8.92-2.33c-5.48-3.16-8.86-9.16-9.54-16.89h0C234,79.4,244.62,61.06,259,54.34c7-3.28,13.92-3.35,19.4-.19s8.86,9.17,9.53,16.9c1.38,15.83-9.2,34.17-23.6,40.89A25,25,0,0,1,253.87,114.45ZM269.5,52.74a23.92,23.92,0,0,0-10.1,2.43c-14.08,6.57-24.43,24.5-23.08,40h0c.64,7.43,3.87,13.18,9.08,16.19s11.81,2.93,18.56-.23c14.08-6.57,24.44-24.51,23.09-40C286.4,63.7,283.17,58,278,54.94A16.71,16.71,0,0,0,269.5,52.74Z" style="fill:#5928E5"></path><path d="M270.29,88.53a.78.78,0,0,1-1.09-.13c-1.11-1.47-2.92-1.69-4.85-.58s-3.26,3.57-4.37,6.27c-.43,1-1.26,1.71-1.86,1.48s-.73-1.26-.3-2.3c1.61-3.91,3.77-7.4,6.53-9s5.43-1.31,7,.83a2.59,2.59,0,0,1-.33,2.66A2.29,2.29,0,0,1,270.29,88.53Z" style="fill:#fafafa"></path><path d="M255.36,92.89a.86.86,0,0,1-.84.08c-.57-.29-.56-1.33-.18-2.39,2.33-6.55,6-10.32,10-12.63s7.73-2.11,10.27.53a2.4,2.4,0,0,1-.18,2.6c-.56,1-1.4,1.33-1.87.84-2-2.11-5-2.26-8.22-.42s-6,5.28-8,10.15A2.51,2.51,0,0,1,255.36,92.89Z" style="fill:#fafafa"></path><path d="M251.74,90.1a.88.88,0,0,1-.88.06c-.55-.32-.53-1.38-.12-2.43,3.56-9.22,8.39-13.09,13.61-16.1s10.11-2.87,13.54.33c.49.45.44,1.6-.11,2.57s-1.4,1.38-1.88.92c-2.93-2.72-7.14-2.83-11.55-.28a26.82,26.82,0,0,0-11.61,13.74A2.42,2.42,0,0,1,251.74,90.1Z" style="fill:#fafafa"></path><path d="M261.87,96.46a5.93,5.93,0,0,1,2.48-4.73c1.37-.8,2.48,0,2.48,1.87a5.93,5.93,0,0,1-2.48,4.74C263,99.13,261.87,98.29,261.87,96.46Z" style="fill:#fafafa"></path><rect x="282.96" y="56.77" width="69.42" height="0.91" transform="translate(14.01 166.69) rotate(-30.03)" style="fill:#5928E5"></rect><path d="M343.33,42.29a9.22,9.22,0,0,1,4.17-7.22c2.3-1.33,4.16-.25,4.16,2.4a9.21,9.21,0,0,1-4.16,7.22C345.2,46,343.33,44.94,343.33,42.29Z" style="fill:#5928E5"></path><path d="M304.12,73.13l34.4-19.73c.59-.35,1.08-.1,1.08.55a2.33,2.33,0,0,1-1.08,1.79l-34.4,19.73c-.6.35-1.08.1-1.08-.54A2.31,2.31,0,0,1,304.12,73.13Z" style="fill:#455a64"></path><path d="M304.12,80.16l34.4-19.73c.59-.34,1.08-.1,1.08.55a2.35,2.35,0,0,1-1.08,1.8l-34.4,19.73c-.6.34-1.08.1-1.08-.55A2.32,2.32,0,0,1,304.12,80.16Z" style="fill:#455a64"></path><path d="M304.12,87.2l34.4-19.73c.59-.34,1.08-.1,1.08.55a2.35,2.35,0,0,1-1.08,1.8l-34.4,19.73c-.6.34-1.08.1-1.08-.55A2.31,2.31,0,0,1,304.12,87.2Z" style="fill:#455a64"></path><path d="M241.34,167.05c0-11.5,8.08-25.49,18-31.25,5-2.88,9.51-3.15,12.77-1.25l4.59,2.68a21.48,21.48,0,0,1,3,10.38c0,11.5-8.08,25.49-18,31.25a21.35,21.35,0,0,1-10.5,2.56l-4.61-2.69C243.36,176.85,241.34,172.81,241.34,167.05Z" style="fill:#5928E5"></path><path d="M246.54,149.42c-3.21,5.62-5.2,11.93-5.2,17.63s2,9.8,5.28,11.68l4.61,2.69a21.35,21.35,0,0,0,10.5-2.56c4.94-2.85,9.41-7.73,12.67-13.32Z" style="opacity:0.15"></path><path d="M279.77,147.61c0,5.8-2.06,12.23-5.37,17.92l-27.86-16.11c3.28-5.72,7.82-10.72,12.84-13.62s9.51-3.15,12.77-1.25l4.59,2.68A21.48,21.48,0,0,1,279.77,147.61Z" style="fill:#fff;opacity:0.4"></path><path d="M241.72,162.6a39.92,39.92,0,0,1,4.82-13.18l27.86,16.11a40,40,0,0,1-9,10.78Z" style="fill:#5928E5;opacity:0.76"></path><ellipse cx="263.98" cy="159.33" rx="25.52" ry="14.73" transform="translate(-5.99 308.28) rotate(-60)" style="fill:#5928E5"></ellipse><path d="M253.87,189.29A17.64,17.64,0,0,1,245,187c-5.48-3.17-8.86-9.17-9.54-16.9h0C234,154.24,244.62,135.9,259,129.18c7-3.28,13.92-3.35,19.4-.18s8.86,9.16,9.53,16.89c1.38,15.83-9.2,34.17-23.6,40.89A25,25,0,0,1,253.87,189.29Zm15.63-61.71A23.92,23.92,0,0,0,259.4,130c-14.08,6.57-24.43,24.5-23.08,40h0c.64,7.43,3.87,13.18,9.08,16.19s11.81,2.93,18.56-.23c14.08-6.57,24.44-24.5,23.09-40-.65-7.43-3.88-13.18-9.09-16.19A16.81,16.81,0,0,0,269.5,127.58Z" style="fill:#5928E5"></path><rect x="282.97" y="131.51" width="69.4" height="0.91" transform="translate(-23.39 176.72) rotate(-30.03)" style="fill:#5928E5"></rect><path d="M343.56,117a9.21,9.21,0,0,1,4.16-7.22c2.3-1.33,4.17-.25,4.17,2.41a9.2,9.2,0,0,1-4.17,7.21C345.42,120.75,343.56,119.68,343.56,117Z" style="fill:#5928E5"></path><path d="M275,163.05,253,175.72c-.46.27-.84,0-.84-.64V157.55l11.17,6.06c.38.17.91-.14,1.29-.75l11.17-19v17.53A2,2,0,0,1,275,163.05Z" style="fill:#fafafa"></path><path d="M252.17,156.48l23.63-13.65-11.21,17c-.36.56-.85.84-1.22.7Z" style="fill:#fafafa"></path><path d="M304.12,147.87l34.4-19.73c.59-.35,1.08-.1,1.08.54a2.33,2.33,0,0,1-1.08,1.8l-34.4,19.73c-.6.35-1.08.1-1.08-.55A2.3,2.3,0,0,1,304.12,147.87Z" style="fill:#455a64"></path><path d="M304.12,154.9l34.4-19.73c.59-.34,1.08-.1,1.08.55a2.35,2.35,0,0,1-1.08,1.8l-34.4,19.73c-.6.34-1.08.1-1.08-.55A2.32,2.32,0,0,1,304.12,154.9Z" style="fill:#455a64"></path><path d="M304.12,161.94l34.4-19.73c.59-.35,1.08-.1,1.08.55a2.33,2.33,0,0,1-1.08,1.79l-34.4,19.73c-.6.35-1.08.1-1.08-.55A2.3,2.3,0,0,1,304.12,161.94Z" style="fill:#455a64"></path><path d="M241.34,241.9c0-11.51,8.08-25.5,18-31.26,5-2.88,9.51-3.15,12.77-1.25l4.59,2.68a21.48,21.48,0,0,1,3,10.38c0,11.51-8.08,25.5-18,31.25a21.42,21.42,0,0,1-10.5,2.57l-4.61-2.69C243.36,251.69,241.34,247.65,241.34,241.9Z" style="fill:#5928E5"></path><path d="M246.54,224.26c-3.21,5.62-5.2,11.93-5.2,17.64s2,9.79,5.28,11.68l4.61,2.69a21.42,21.42,0,0,0,10.5-2.57c4.94-2.85,9.41-7.73,12.67-13.32Z" style="opacity:0.15"></path><path d="M279.77,222.45c0,5.8-2.06,12.23-5.37,17.93l-27.86-16.12c3.28-5.72,7.82-10.71,12.84-13.62s9.51-3.15,12.77-1.25l4.59,2.68A21.48,21.48,0,0,1,279.77,222.45Z" style="fill:#fff;opacity:0.4"></path><path d="M241.72,237.44a39.92,39.92,0,0,1,4.82-13.18l27.86,16.12a39.92,39.92,0,0,1-9,10.77Z" style="fill:#5928E5;opacity:0.76"></path><ellipse cx="263.98" cy="234.17" rx="25.52" ry="14.73" transform="translate(-70.8 345.7) rotate(-60)" style="fill:#5928E5"></ellipse><path d="M253.87,264.13a17.64,17.64,0,0,1-8.92-2.32c-5.48-3.16-8.86-9.16-9.54-16.9h0C234,229.09,244.62,210.75,259,204c7-3.29,13.92-3.35,19.4-.19s8.86,9.16,9.53,16.89c1.38,15.83-9.2,34.17-23.6,40.89A25,25,0,0,1,253.87,264.13Zm15.63-61.71a23.92,23.92,0,0,0-10.1,2.43c-14.08,6.57-24.43,24.51-23.08,40h0c.64,7.43,3.87,13.18,9.08,16.19S257.21,264,264,260.8c14.08-6.57,24.44-24.51,23.09-40-.65-7.43-3.88-13.18-9.09-16.18A16.72,16.72,0,0,0,269.5,202.42Z" style="fill:#5928E5"></path><rect x="282.97" y="206.25" width="69.4" height="0.91" transform="translate(-60.8 186.76) rotate(-30.03)" style="fill:#5928E5"></rect><path d="M343.66,191.76a9.22,9.22,0,0,1,4.17-7.22c2.3-1.33,4.16-.25,4.16,2.41a9.21,9.21,0,0,1-4.16,7.21C345.53,195.49,343.66,194.41,343.66,191.76Z" style="fill:#5928E5"></path><path d="M274.59,226.17l-.23.13v-1.76c0-3.95-2.4-5.77-5.36-4.06a8.63,8.63,0,0,0-3.34,4.27c-.53-3.34-2.93-4.7-5.81-3-3.56,2.06-6.45,7.57-6.45,12.32v4.37l0,0c-2.27,1.3-4.1,4.8-4.1,7.82s1.83,4.4,4.1,3.1l21.21-12.25c2.26-1.31,4.1-4.81,4.1-7.83S276.85,224.86,274.59,226.17Zm-8.26,7V239l-4.69,2.71v-5.78l-2.12,1.22,4.46-8.38,4.46,3.23Z" style="fill:#fafafa"></path><path d="M304.12,222.6l34.4-19.73c.59-.34,1.08-.1,1.08.55a2.35,2.35,0,0,1-1.08,1.8L304.12,225c-.6.34-1.08.1-1.08-.55A2.32,2.32,0,0,1,304.12,222.6Z" style="fill:#455a64"></path><path d="M304.12,229.64l34.4-19.73c.59-.35,1.08-.1,1.08.55a2.35,2.35,0,0,1-1.08,1.8L304.12,232c-.6.35-1.08.1-1.08-.54A2.31,2.31,0,0,1,304.12,229.64Z" style="fill:#455a64"></path><path d="M304.12,236.67,338.52,217c.59-.35,1.08-.1,1.08.54a2.33,2.33,0,0,1-1.08,1.8L304.12,239c-.6.35-1.08.1-1.08-.55A2.32,2.32,0,0,1,304.12,236.67Z" style="fill:#455a64"></path></g></g><g id="freepik--speech-bubble--inject-4"><g id="freepik--speech-bubbles--inject-4"><g id="freepik--speech-bubble--inject-4"><path d="M408.81,101.11a.78.78,0,0,1-.28-.29l-3.59-6.2V91.2l10.55-4.12v3.41l-1.28,3.69,6.27-3.61.38,2.11-3.73,12.19a.8.8,0,0,1-1.14.42Z" style="fill:#5928E5"></path><path d="M408.81,101.11a.78.78,0,0,1-.28-.29l-3.59-6.2V91.2l10.55-4.12v3.41l-1.28,3.69,6.27-3.61.38,2.11-3.73,12.19a.8.8,0,0,1-1.14.42Z" style="opacity:0.30000000000000004"></path><path d="M420.48,90.57l.38,2.11-3.73,12.19a.79.79,0,0,1-1.42.13l-4-7,.47-2.6Z" style="fill:#5928E5"></path><path d="M420.48,90.57l.38,2.11-3.73,12.19a.79.79,0,0,1-1.42.13l-4-7,.47-2.6Z" style="opacity:0.2"></path><path d="M435,38.52a7.55,7.55,0,0,0-3.42-5.91h0a7.54,7.54,0,0,0-6.83,0L392.8,51a7.55,7.55,0,0,0-3.42,5.91V99.15a7.53,7.53,0,0,0,3.42,5.91h0a7.58,7.58,0,0,0,6.82,0l32.3-18.57C435,84.74,435,83,435,80.81Z" style="fill:#5928E5"></path><path d="M435,38.52a7.55,7.55,0,0,0-3.42-5.91h0a7.54,7.54,0,0,0-6.83,0L392.8,51a7.55,7.55,0,0,0-3.42,5.91V99.15a7.53,7.53,0,0,0,3.42,5.91h0a7.58,7.58,0,0,0,6.82,0l32.3-18.57C435,84.74,435,83,435,80.81Z" style="opacity:0.2"></path><path d="M389.38,99.15a7.53,7.53,0,0,0,3.42,5.91h0a7.61,7.61,0,0,0,6.24.28c-1.61.61-2.83-.31-2.83-2.25V60.8a7,7,0,0,1,1-3.37l-6.83-3.93a7,7,0,0,0-1,3.36Z" style="opacity:0.2"></path><path d="M434.9,37.55c-.39-1.45-1.72-1.91-3.29-1l-32,18.34a6.73,6.73,0,0,0-2.4,2.55l-6.82-3.93A6.81,6.81,0,0,1,392.8,51l32-18.34a7.6,7.6,0,0,1,6.83,0h0A7.48,7.48,0,0,1,434.9,37.55Z" style="fill:#5928E5"></path></g><path d="M415.74,52.48a8.93,8.93,0,0,1,3.53-1.24,4.48,4.48,0,0,1,4.8,2.79,9.2,9.2,0,0,1,.7,3.85,14.29,14.29,0,0,1-.4,3.47,22.2,22.2,0,0,1-1,3.11A25.22,25.22,0,0,1,422,67.27l-1.42,2.6c-.45.85-.86,1.7-1.23,2.54a10.8,10.8,0,0,0-.76,2.52,5.19,5.19,0,0,1-.31,1.16,1.44,1.44,0,0,1-.59.75L413.6,79.2a.48.48,0,0,1-.63,0,1.08,1.08,0,0,1-.27-.82,12.17,12.17,0,0,1,.45-3.3,22.69,22.69,0,0,1,1.12-3.09,32.15,32.15,0,0,1,1.46-2.87c.52-.92,1-1.8,1.45-2.62a20.82,20.82,0,0,0,1.12-2.37,5.89,5.89,0,0,0,.45-2.16c0-1-.24-1.64-.73-1.92s-1.25-.13-2.28.46a5.89,5.89,0,0,0-2.15,1.94,9.47,9.47,0,0,0-1,2.07c-.2.66-.37,1.27-.51,1.82a1.81,1.81,0,0,1-.86,1.18l-4.07,2.36a.43.43,0,0,1-.52,0,.88.88,0,0,1-.22-.7,17.07,17.07,0,0,1,.67-4.17,24.85,24.85,0,0,1,1.82-4.7,23.74,23.74,0,0,1,2.89-4.43A14.57,14.57,0,0,1,415.74,52.48ZM418.65,86a2.6,2.6,0,0,1-.27,1.13,1.65,1.65,0,0,1-.63.78l-4.21,2.43a.49.49,0,0,1-.64,0,1.12,1.12,0,0,1-.27-.83v-5.2a2.63,2.63,0,0,1,.27-1.13,1.72,1.72,0,0,1,.64-.78l4.21-2.43a.48.48,0,0,1,.63,0,1.08,1.08,0,0,1,.27.82Z" style="fill:#fafafa"></path></g></g><g id="freepik--character-2--inject-4"><g id="freepik--Character--inject-4"><path d="M426.15,170.93c8.62-2.24,14.53,1.18,17.08,9.83,2.39,8.11,7.3,27.91,8.56,33.15.57,2.35-17.46,22.84-16.82,22.54.19-.09-5.66-10.18-5.66-10.18l8.79-13.16-5.21-14.48Z" style="fill:#ffa8a7"></path><polygon points="408.39 165.65 410.01 182.49 425.07 181.55 423.86 162.87 408.39 165.65" style="fill:#ffa8a7"></polygon><path d="M397.23,147.16s-3.34,5-2.9,5.48a8.06,8.06,0,0,0,2.55,1.08Z" style="fill:#f28f8f"></path><path d="M433.12,132.41a4.27,4.27,0,0,0-.23-1.36,7.61,7.61,0,0,0-1.57-2.36,12.82,12.82,0,0,0-4.68-3.1,21.29,21.29,0,0,0-8.58-1.46c-2.8.08-5.43.63-8.25.11a44.77,44.77,0,0,0-6.37-1,7.6,7.6,0,0,0-5.9,2.11,6.44,6.44,0,0,0-1.55,4.34,10.91,10.91,0,0,0,1.1,4.54c-2.1,1.49-2.58,4.56-1.69,7,1.23,3.3,4.41,5.3,7,7.48,2,1.7,3.95,3.51,5.8,5.4a38.13,38.13,0,0,1,2.6,2.8l.15.21a4.49,4.49,0,0,1-2.12-.17s-.42,7.46,4.87,9.87a21.58,21.58,0,0,0,10.39-.6,37,37,0,0,0,9.22-10.71C438.52,146.75,437.57,137.55,433.12,132.41Z" style="fill:#263238"></path><path d="M413.63,155.39a4,4,0,0,1-2.7,1.65,4.37,4.37,0,0,1-2.12-.17s-.31,5.66,3.09,8.69c-.69.28-1.33.5-1.87.67-3,.91-8.85.53-10-.53-1.68-1.59-4.41-5.76-2.93-17.81a24.47,24.47,0,0,1,3.52-10.71,5.18,5.18,0,0,0,3,3.94,5,5,0,0,0-.81,4.19,10.07,10.07,0,0,0,3,4.28.64.64,0,0,0,.26.18,1.76,1.76,0,0,0,1.07-.16c1.07-1.57,2.54-3.4,5.43-2.44C415.88,148.26,415.72,152.33,413.63,155.39Z" style="fill:#ffa8a7"></path><path d="M400.36,165.91c1.37.75,5.24,1.06,8.12.64l-.09-2.16a20.84,20.84,0,0,1-3.84,1.25A13.92,13.92,0,0,1,400.36,165.91Z" style="fill:#f28f8f"></path><path d="M405.56,153.84a2.8,2.8,0,0,1-1.71-3.59,2.87,2.87,0,0,1,3.65-1.68Z" style="fill:#263238"></path><path d="M439.14,121a9,9,0,0,0-4.81.18,5.42,5.42,0,0,0-3-2A5.48,5.48,0,0,0,428,129.64a9,9,0,0,0,6.23,8.74,5.48,5.48,0,1,0,10.07-3.19,9,9,0,0,0-5.16-14.2Z" style="fill:#263238"></path><path d="M409.5,383.78a50.89,50.89,0,0,1,1.46,5c.42,1.86,1,5,.4,6.38s-3.38,2.42-7.29,3c-3.14.46-5.69,1.88-9.67,3.49a21.9,21.9,0,0,1-10.93,1.78c-5.08-.29-7.27-2.66-7.87-4.1s-1.12-3.43,8.34-6.67c.08,0,11.45-4,15.37-8.48Z" style="fill:#263238"></path><path d="M409.51,384l-1.82-.19-8.38.33c-3.92,4.51-15.29,8.46-15.37,8.48l-1.51.54c-1.62,1.37-.18,3.61,3.76,3.88S402.27,393,405,391.64A8.1,8.1,0,0,0,409.51,384Z" style="fill:#ffa8a7"></path><path d="M409.44,380.44s0,2.29.07,3.6-1.47,3.29-5.48,3.22c-2.81,0-4.79-.76-4.72-3.08l-.07-3.33Z" style="fill:#ffa8a7"></path><path d="M436.09,367.66c.56,0,.72.84,1.15,4.1.28,2.07.79,4.89-1.22,6.3-2.7,1.89-6.94,1.32-8.49-.66a96,96,0,0,0-6-7.65c-2.4-2.62-5.5-5-6.62-8.56-1.26-4-.06-5.88,2.66-6.16a11,11,0,0,1,7.67,2.66,14.22,14.22,0,0,0,2.82,1.42C430.13,359.71,435.31,367.59,436.09,367.66Z" style="fill:#263238"></path><path d="M436.1,365.65l0,3.38s-2.18,4.48-8.56.17c-.15-.33-.84-6.86-.84-6.86Z" style="fill:#ffa8a7"></path><path d="M428.05,359.11a14.22,14.22,0,0,1-2.82-1.42h0c-2.56-.76-7.88.28-5.4,3.92a28.66,28.66,0,0,0,7.69,7.59c2.87,1.35,3.84-.41,3.84-.41l-1.17-7.92A6.29,6.29,0,0,0,428.05,359.11Z" style="fill:#ffa8a7"></path><path d="M439.78,318.75a80.48,80.48,0,0,0-4-17.44s1.83-15,3.23-29.34c3.28-33.72.64-34.21-4.34-45.81,0,0-43.23-4.71-44.69,13.26-1.81,22.38.06,65.67.59,73.59s1.25,11.48,3.92,28c2,12.59,4.28,40.17,4.28,40.17,5.72,3.15,11.08-.78,11.08-.78s4.74-34.07,4.44-43.2A77.75,77.75,0,0,0,411,317.29s3-36.47,3.78-42.28c0,0,1.27,11.59,1.8,19.5s2.83,15.49,5,30.2c1.89,12.76,5.14,39.42,5.14,39.42,5.72,3.14,9.64,1.59,9.64,1.59S441.25,329.82,439.78,318.75Z" style="fill:#5928E5"></path><g style="opacity:0.4"><path d="M439.78,318.75a80.48,80.48,0,0,0-4-17.44s1.83-15,3.23-29.34c3.28-33.72.64-34.21-4.34-45.81,0,0-43.23-4.71-44.69,13.26-1.81,22.38.06,65.67.59,73.59s1.25,11.48,3.92,28c2,12.59,4.28,40.17,4.28,40.17,5.72,3.15,11.08-.78,11.08-.78s4.74-34.07,4.44-43.2A77.75,77.75,0,0,0,411,317.29s3-36.47,3.78-42.28c0,0,1.27,11.59,1.8,19.5s2.83,15.49,5,30.2c1.89,12.76,5.14,39.42,5.14,39.42,5.72,3.14,9.64,1.59,9.64,1.59S441.25,329.82,439.78,318.75Z"></path></g><path d="M414.75,275l1.77-15.77a27.15,27.15,0,0,0,16.63-6.15s-2.72,5.8-14.12,8.54l-1.92,16.22-.46,17.85Q415.87,285.25,414.75,275Z" style="opacity:0.15"></path><path d="M436.7,177.16A9,9,0,0,0,426,171l-1.58.34c-.46,2.42-8.25,4.48-15.27,2l-6.65,1.05c-6.21,2.9-10.73,10.29-14,17.63-2.29,5.16-1.25,10.48,3.43,14.56,0,0-.57,8.81-.87,13.74q-.68,11.06-1.45,22.1s11,5.89,28.33,3.61c15.52-2,22.41-11.18,21.87-10a152.17,152.17,0,0,0-8.86-22.58C439.1,193.34,438.87,183.61,436.7,177.16Z" style="fill:#455a64"></path><path d="M363.27,211.34c-3.81-3.08-7.47-6.35-11.18-9.55q-4.45-3.82-8.95-7.59c-.74-.62-1.47-1.29-2.25-1.87a20.9,20.9,0,0,0-2.33-1.37c-1.71-1-3.41-1.91-5.13-2.85a19.88,19.88,0,0,1-3-1.82,34.17,34.17,0,0,1-2.91-2.6,5.08,5.08,0,0,1-1.95-4.55,4.88,4.88,0,0,1,.28-1.9c.41-1,1.43-1.25,1.93-2.06s.13-1.79.76-2.5a3.78,3.78,0,0,1,1.4-.78c1-.43,1.13-1,.71-1.84s-.87-1.7-1.33-2.53c-1.42-2.56-2-4.6-.7-5.26,1.75-.93,3.27,1.71,5.31,4.74s3.78,6.12,6.69,8.48c.23-1.64.45-3.28.68-4.91a4,4,0,0,1,.56-1.83,1.38,1.38,0,0,1,1.69-.52,2,2,0,0,1,.76,1.41l1.08,4.74a20.8,20.8,0,0,0,1.76,5.43,19.38,19.38,0,0,0,5.45,5.75c6,4.66,12.25,8.9,18.58,13l0,0s15.15-14.42,19.35-18.36,6.79-5.53,13.08-6.09c0,0,5,11.37-2.11,20.16,0,0-23,17.55-27.43,19.49C370.41,215.46,367.17,214.48,363.27,211.34Z" style="fill:#ffa8a7"></path><path d="M409.33,246.52a59.64,59.64,0,0,0,8.59-.52c14.15-1.86,21.26-9.61,21.85-10.08a142.81,142.81,0,0,0-8.84-22.5c4.13-10.15,6.11-17.65,6.78-23.42-.67,4.21-6.89,20.51-15,25.4,0,0,4.59.71,8.52,6.11S431.91,245.36,409.33,246.52Z" style="fill:#37474f"></path></g></g><g id="freepik--character-1--inject-4"><g id="freepik--character--inject-4"><path d="M79.41,213.23a28.3,28.3,0,0,1,.52-4.59A6.44,6.44,0,0,1,81.88,205a1.46,1.46,0,0,1,.8-.38v5.36a8,8,0,0,0,3.45,3.91,3.19,3.19,0,0,0,.89.38,1.19,1.19,0,0,0,.92-.16c.53-.36.32-.87.14-1.35a11,11,0,0,1-.6-4.72,2.34,2.34,0,0,1,.36-1.19.93.93,0,0,1,1.1-.35,1.34,1.34,0,0,1,.56.73,25.12,25.12,0,0,0,2.64,5.13c2.27,2.88,2.16,5.26,4.38,8,.82,1,10,9,17.32,14.68,13.67-13.78,21.51-23.65,26.79-21.49,5.92,1.23,9.44,8,2.13,15.23a221.42,221.42,0,0,1-24,19.52c-3.74,2.42-7.14,4.39-11.81-.31-6-6.06-9.37-10.62-11.88-13.49a35.38,35.38,0,0,0-6.91-5.88c-1.1-.74-2.24-1.44-3.34-2.19a10.06,10.06,0,0,1-2.4-2.47,15.85,15.85,0,0,1-2.63-6.26A21.58,21.58,0,0,1,79.41,213.23Z" style="fill:#ffa8a7"></path><path d="M113.85,235c-1.95,1.46-3.74,5.65-3.74,5.65a11.8,11.8,0,0,1,2.33-6.77Z" style="fill:#f28f8f"></path><path d="M145.82,215c-3.39-2.65-8.52-3.75-13.75.73-4.85,4.14-15.43,14.82-15.43,14.82a15.63,15.63,0,0,0,2.88,8.82c3.12,4.61,5.7,5.21,5.7,5.21l17-13.77Z" style="fill:#5928E5"></path><path d="M200.42,440.32c.5,2.46-.39,3.74-3.56,5.57s-8.14,2.45-13.37.93-7.73-3.8-9.9-4.34-7.55-.6-9.7-1.22-2.11-1.73-2.1-4.32Z" style="fill:#455a64"></path><path d="M163.89,424.5s-1,3.09-1.57,5.79c-.43,2.15-1.06,5.75-.31,7.36s3.69,2.66,8.24,2.63c2.95,0,7.55,2,10.69,3.73s6.78,1.82,10.21,1.42c4-.48,8.25-2.82,8.9-4.5s.83-2.94-8.72-7c-.08,0-11.07-4.1-15.69-9.19Z" style="fill:#5928E5"></path><g style="opacity:0.30000000000000004"><path d="M163.89,424.5s-1,3.09-1.57,5.79c-.43,2.15-1.06,5.75-.31,7.36s3.69,2.66,8.24,2.63c2.95,0,7.55,2,10.69,3.73s6.78,1.82,10.21,1.42c4-.48,8.25-2.82,8.9-4.5s.83-2.94-8.72-7c-.08,0-11.07-4.1-15.69-9.19Z"></path></g><path d="M182.24,444.64s.82-8.2,7.48-10.54c6-2.12,11.29,2.34,10.7,6.22C200,442.93,192.69,448.86,182.24,444.64Z" style="fill:#fafafa"></path><path d="M188,432.57a7.79,7.79,0,0,0-4.55,2c-1.92,1.62-2,2.69-2,2.69a1,1,0,0,1-1.74-.83s.44-4.13,5.88-5A2.23,2.23,0,0,1,188,432.57Z" style="fill:#fafafa"></path><path d="M184.23,430.74a6.84,6.84,0,0,0-4.59,1.83c-1.92,1.61-1.93,2.88-1.93,2.88a1,1,0,0,1-1.74-.83s.45-4.13,5.89-5A2.22,2.22,0,0,1,184.23,430.74Z" style="fill:#fafafa"></path><path d="M180.45,428.58a6.85,6.85,0,0,0-4.71,1.51c-2,1.48-2.12,2.75-2.12,2.75a1,1,0,0,1-1.68-.95s.73-4.09,6.22-4.57A2.21,2.21,0,0,1,180.45,428.58Z" style="fill:#fafafa"></path><path d="M163.89,417.54s0,5.75,0,7.26,1.77,3.76,6.38,3.59c3.24-.12,5.5-1,5.37-3.65v-6.6Z" style="fill:#ffa8a7"></path><path d="M159.15,397.52c.16,2.07.43,3.94-.38,6.22-1.15,3.28-3.6,4.78-5,6.07a24.67,24.67,0,0,0-4.19,5.07,21.45,21.45,0,0,1-4.36,5.46c-1.37,1.18-5.21,1.29-7.06.51s-2.47-1.48-2.35-4.43,9.07-4,9.07-4Z" style="fill:#455a64"></path><path d="M136.94,407.6c-.77.29-1,1.75-1.08,4.64-.09,2.19-1,5.4,2,6.78,2.44,1.12,6.33.38,8-1.69,2.06-2.58,3.44-4.85,6.37-8,2.54-2.73,5.19-3.65,6.32-9.1.73-3.51.16-5-2.2-6-3.25-1.38-8.34,3.14-10.89,3.85C143.25,398.73,137.7,407.31,136.94,407.6Z" style="fill:#5928E5"></path><path d="M136.94,407.6c-.77.29-1,1.75-1.08,4.64-.09,2.19-1,5.4,2,6.78,2.44,1.12,6.33.38,8-1.69,2.06-2.58,3.44-4.85,6.37-8,2.54-2.73,5.19-3.65,6.32-9.1.73-3.51.16-5-2.2-6-3.25-1.38-8.34,3.14-10.89,3.85C143.25,398.73,137.7,407.31,136.94,407.6Z" style="opacity:0.30000000000000004"></path><path d="M145.44,398.12l.44-.15a8.37,8.37,0,0,1,7,4.6c.43,1-.9,1.7-1.7,1a8.93,8.93,0,0,0-7-4.58A3.6,3.6,0,0,1,145.44,398.12Z" style="fill:#fafafa"></path><path d="M143.35,399.77a8.29,8.29,0,0,1,6.52,4.57c.43,1-.9,1.69-1.69,1a8.54,8.54,0,0,0-5.86-4.37C142.67,400.51,143,400.12,143.35,399.77Z" style="fill:#fafafa"></path><path d="M136.5,402.37l.44,6.1s3.69,2.84,9,.25c.16-.35.61-5.81.61-5.81Z" style="fill:#ffa8a7"></path><path d="M157,404.27s-.25-6.49-9-7.39l-.5.28a7.6,7.6,0,0,1,4.32-3.33c2.91-.79,5.22,0,6.75,1.94S158.56,403,157,404.27Z" style="fill:#fafafa"></path><path d="M133.94,361.67a88.23,88.23,0,0,1,3.47-17.07S135.91,330,135,316.09c-.38-6.11-.57-12.85-.69-19a103.22,103.22,0,0,1,1.52-20.23s43-10.12,44.21,7.21c1.41,19.49,1.53,63.39,1.24,68.83-.4,7.63-.41,15.57-1.71,28-1.28,12.22-3.42,39.75-3.42,39.75-6.2,2.23-12.95,0-12.95,0s-3.59-33.23-3.43-42a75.19,75.19,0,0,1,2.91-19.27L156.94,311s-.58,21.49-1,29.12-1.45,12.29-3.34,26.5c-1.63,12.32-5.88,37.17-5.88,37.17a13.52,13.52,0,0,1-10.28,0S132.69,372.36,133.94,361.67Z" style="fill:#37474f"></path><path d="M140.12,300.92s5.63,7.56,12.87,10.81c0,0,3.15,26.61,3.13,26.08l.82-26.77S146.11,306,140.12,300.92Z" style="fill:#263238"></path><polygon points="162.78 207.46 162.04 223.29 146.34 222.45 146.83 204.05 162.78 207.46" style="fill:#ffa8a7"></polygon><path d="M131.81,222.84c1.31-4.32,6.54-10.18,12-9.29,1.27.2,1.55.38,2.75.6.66,2.67,8.83,3.66,15.82,2,2.1.55,9.29,3.09,11,3.68,5,1.66,5.88,6.59,6.66,23,0,0,.8,33.3.86,46.79-14.29,6.63-25.15,5-32.38,3.61-15.05-2.94-14.31-5.37-14.31-5.37.64-9,.25-16.21,0-25.09a97.93,97.93,0,0,0-2.33-18.91C129.85,233.86,130.91,225.81,131.81,222.84Z" style="fill:#455a64"></path><path d="M249.68,257.91a1.57,1.57,0,0,0-1-1.26,4.84,4.84,0,0,0-1.65-.32,51.38,51.38,0,0,1-9.91-1.85c-.86-.25-1.84-.65-2.06-1.52-.27-1.05.73-1.93,1.43-2.76a6.16,6.16,0,0,0,1.43-3.29c.09-.71-.14-2.23-1.3-1.48a27.12,27.12,0,0,1-5.33,2.89c-3.37,1.44-4.82,3.05-8.1,4.43a187.68,187.68,0,0,1-21.82,5.14c-12.15-14.22-21-35.54-26.71-36.17-5.79-1.75-9.68,10.68-5.57,19.42,3.53,7.5,17.73,22.72,20.69,26.05s5.13,7.28,11.48,5.38c8.19-2.44,13.31-4.84,16.88-6.16,2.32-.87,5-2.14,7.49-2.41a11.5,11.5,0,0,1,3.84.06c1.43.32,2.86.67,4.29,1a30.79,30.79,0,0,0,6.63.92,6.19,6.19,0,0,0,3.11-.51,5.58,5.58,0,0,0,1.71-1.57c.43-.54,1-.88,1.45-1.41a2.92,2.92,0,0,0,.66-2.71,5,5,0,0,0,1.56-.53A1.59,1.59,0,0,0,249.68,257.91Z" style="fill:#ffa8a7"></path><path d="M173.42,219.85c5.24,1,5.89,3.09,9.33,8.92s11.1,19,11.1,19-2.15,7.77-11.92,11.45c0,0-9.1-10.42-13-17.43S165.58,223.47,173.42,219.85Z" style="fill:#5928E5"></path><path d="M173.34,188s3.75,5.68,3.32,6.24-3.18,1.06-3.18,1.06Z" style="fill:#f28f8f"></path><path d="M163,172.32c7.58,1.59,9.76,4.92,10.48,17,.74,12.57-.54,16.52-2.19,18.22-1.12,1.14-7.31,1.35-10.44.48-3.91-1.07-12.75-4.21-16.89-10.53-4.87-7.44-6.15-17.52-.93-21.66C150.31,170,159.87,171.67,163,172.32Z" style="fill:#ffa8a7"></path><path d="M162.65,208.32a31.44,31.44,0,0,1-4-1,7,7,0,0,0,3.8,2.19Z" style="fill:#f28f8f"></path><path d="M175,177a10.21,10.21,0,0,1-1.94,1.53,25.69,25.69,0,0,1-3.16,1.76,18.8,18.8,0,0,0-3.08,1.44c-1.37,1-1.55,2.28-1.58,3.86,0,1,0,2.31,0,3.7,0,2.09-1.35,3.68-2,.88,0,0-1.2-4.65-5.12-4.06s-4.26,5-2.39,8.46c1.14,2.11,4.18,1.55,4.18,1.55a13.67,13.67,0,0,1-4.09,10.54s-3.11,1.62-9.27.31c-4.22-5.81-6.87-8.63-9.12-13.64-4.76-10.6-2.46-17.25,1.22-20,.73-4.88,4.57-7.07,9-8.08,6.55-1.51,12.69,2.39,19.17.93a28.79,28.79,0,0,0,3.16-.83,1.78,1.78,0,0,1,1.28-.08,1.42,1.42,0,0,1,.61,1.45,3.91,3.91,0,0,1-1.9,3.07c.13-.08.76.09.94.1.36,0,.72,0,1.09,0a19.23,19.23,0,0,0,2.13-.15,3.83,3.83,0,0,1,1.47.05,2.65,2.65,0,0,1,1.67,2.67,6.58,6.58,0,0,1-1.16,3.15,8.7,8.7,0,0,1-.79,1.12Z" style="fill:#263238"></path><path d="M138.45,174.88l-4.53-2.68a2.63,2.63,0,1,1,4.53,2.68Z" style="fill:#263238"></path></g></g></svg>